<?xml version="1.0" standalone="no"?>
<!DOCTYPE svg PUBLIC "-//W3C//DTD SVG 20010904//EN"
 "http://www.w3.org/TR/2001/REC-SVG-20010904/DTD/svg10.dtd">
<svg version="1.0" xmlns="http://www.w3.org/2000/svg"
 width="689.000000pt" height="619.000000pt" viewBox="0 0 689.000000 619.000000"
 preserveAspectRatio="xMidYMid meet">

<g transform="translate(0.000000,619.000000) scale(0.100000,-0.100000)"
fill="#000000" stroke="none">
<path d="M14 6138 c3 -24 15 -151 26 -283 36 -432 259 -3009 266 -3063 5 -46
9 -55 32 -64 15 -5 330 -97 699 -203 l673 -192 88 25 89 25 -4 51 c-2 28 -13
134 -23 236 -11 102 -24 238 -29 303 -5 65 -11 121 -14 124 -3 3 -29 -2 -57
-10 -36 -11 -59 -13 -74 -6 -11 5 -203 54 -426 109 -234 58 -409 106 -415 114
-6 8 -21 137 -34 288 -13 150 -25 294 -28 321 l-6 47 204 -2 204 -3 14 -167
14 -168 31 -8 c17 -5 128 -33 246 -62 165 -41 224 -52 253 -46 35 7 37 9 37
47 0 22 -8 95 -17 162 -9 67 -17 136 -17 152 l-1 30 245 3 c150 1 248 6 255
13 5 5 15 64 20 129 l10 120 -757 0 -758 0 0 26 c0 28 -95 1134 -105 1222 l-6
52 1067 0 1067 0 -6 -57 c-4 -32 -12 -122 -18 -200 l-12 -143 -830 0 -830 0 6
-37 c3 -21 13 -134 23 -250 l18 -213 793 0 794 0 -6 -47 c-9 -72 -54 -607 -52
-609 1 -1 125 -5 275 -8 228 -6 272 -5 272 6 0 8 43 505 95 1105 52 600 95
1107 95 1126 l0 34 -367 6 c-203 4 -966 7 -1696 7 l-1328 0 5 -42z"/>
<path d="M3485 6143 c4 -16 11 -80 16 -143 5 -63 13 -162 19 -220 5 -58 14
-157 19 -220 6 -63 15 -164 21 -225 20 -215 29 -312 45 -510 9 -110 20 -245
26 -300 15 -169 30 -335 39 -440 5 -55 12 -121 16 -148 l6 -47 272 2 271 3 5
35 5 35 213 3 c165 2 213 0 216 -10 3 -7 7 -25 10 -40 l6 -28 225 0 c123 0
226 -3 228 -7 2 -5 0 -51 -6 -103 -5 -52 -10 -133 -11 -180 l-1 -85 28 -3 27
-3 0 335 0 336 -474 0 c-365 0 -477 3 -482 12 -5 7 -12 58 -16 113 -5 55 -12
145 -17 200 -9 108 -7 125 15 125 8 0 22 4 32 9 28 15 89 41 132 56 43 15 104
41 132 56 10 5 25 9 33 9 8 0 15 5 15 10 0 6 7 10 15 10 8 0 23 4 33 9 25 13
79 36 142 60 30 12 64 25 75 30 40 17 75 31 98 40 12 5 45 19 72 31 28 12 59
26 70 30 11 4 36 15 55 23 19 8 42 17 50 20 8 3 -212 6 -490 6 -278 1 -510 5
-517 9 -12 8 -57 398 -47 414 3 4 246 8 539 8 l535 0 2 213 3 212 685 0 685 0
-1 -75 c-1 -41 -7 -131 -13 -200 -7 -69 -16 -174 -22 -235 -5 -60 -14 -155
-19 -210 -5 -55 -14 -154 -19 -220 -6 -66 -15 -172 -21 -235 -13 -145 -38
-430 -51 -580 -9 -107 -13 -161 -39 -437 -13 -138 -28 -309 -40 -443 -6 -58
-12 -143 -15 -190 -10 -141 0 -129 -125 -162 -41 -11 -91 -24 -110 -29 -19 -6
-46 -13 -60 -15 -14 -3 -34 -9 -45 -14 -11 -4 -38 -13 -60 -19 -148 -40 -191
-52 -285 -76 -58 -15 -116 -30 -130 -35 -14 -4 -45 -13 -70 -20 -25 -7 -56
-16 -70 -20 -14 -4 -45 -13 -70 -19 -25 -7 -57 -16 -72 -21 -15 -4 -29 -5 -32
-2 -3 3 -6 98 -6 212 l0 206 -33 12 c-69 25 -73 21 -80 -70 -4 -46 -14 -162
-22 -258 -36 -389 -37 -370 15 -370 14 0 31 -5 37 -11 14 -14 152 -14 166 0 6
6 23 11 38 11 15 0 31 5 34 10 3 6 19 10 35 10 16 0 31 4 34 9 3 5 20 11 38
14 18 2 67 14 108 25 41 12 102 28 135 37 33 9 76 21 95 27 19 5 46 12 60 14
14 3 34 9 45 14 11 4 40 13 65 20 61 17 110 31 140 40 14 5 72 20 130 35 58
15 115 31 128 36 13 5 34 9 47 9 13 0 27 5 30 10 3 6 19 10 34 10 15 0 31 4
37 9 5 5 20 11 33 13 35 5 47 53 61 263 7 99 16 223 21 275 14 147 29 315 39
420 17 173 30 314 39 430 6 63 15 167 21 230 20 211 28 304 45 500 8 107 20
245 26 305 12 133 27 293 39 435 6 58 14 155 20 215 6 61 14 162 19 225 5 63
12 127 16 143 l7 27 -1702 0 -1702 0 7 -27z"/>
</g>
</svg>
