<?xml version="1.0" standalone="no"?>
<!DOCTYPE svg PUBLIC "-//W3C//DTD SVG 20010904//EN"
 "http://www.w3.org/TR/2001/REC-SVG-20010904/DTD/svg10.dtd">
<svg version="1.0" xmlns="http://www.w3.org/2000/svg"
 width="360.000000pt" height="360.000000pt" viewBox="0 0 360.000000 360.000000"
 preserveAspectRatio="xMidYMid meet">
<metadata>
Created by potrace 1.16, written by Peter Selinger 2001-2019
</metadata>
<g transform="translate(0.000000,360.000000) scale(0.100000,-0.100000)"
fill="#000000" stroke="none">
<path d="M1136 3324 l-26 -27 0 -206 0 -206 98 3 97 3 -1 200 -1 199 -28 30
c-39 41 -100 42 -139 4z"/>
<path d="M1533 3326 l-28 -24 -3 -209 -3 -208 105 3 106 3 0 185 c0 198 -6
226 -52 258 -34 24 -92 20 -125 -8z"/>
<path d="M1929 3321 l-29 -29 0 -204 0 -203 101 0 100 0 -3 208 -3 209 -28 24
c-41 35 -99 33 -138 -5z"/>
<path d="M2328 3321 l-33 -29 0 -202 0 -201 103 -2 102 -2 0 188 c0 243 -13
277 -104 277 -25 0 -45 -9 -68 -29z"/>
<path d="M1004 2774 c-60 -21 -119 -77 -148 -139 l-26 -54 0 -755 c0 -736 1
-757 20 -810 24 -63 78 -117 147 -147 43 -18 76 -19 807 -19 l763 0 61 31 c65
32 107 80 130 148 17 50 17 1527 0 1585 -8 26 -31 60 -63 92 -88 88 -41 84
-899 83 -631 0 -758 -3 -792 -15z"/>
<path d="M524 2512 l-202 -2 -26 -27 c-40 -39 -33 -115 13 -150 11 -9 76 -12
224 -13 l207 0 0 94 c0 52 -3 96 -7 98 -5 2 -99 2 -209 0z"/>
<path d="M2870 2418 l0 -98 205 0 c204 0 206 0 230 24 31 31 40 69 25 106 -22
53 -28 55 -252 60 l-208 5 0 -97z"/>
<path d="M333 2113 c-36 -7 -63 -50 -63 -98 0 -36 5 -48 31 -69 17 -14 35 -26
40 -26 5 0 96 -1 202 -1 l192 0 3 101 3 100 -193 -1 c-106 -1 -203 -4 -215 -6z"/>
<path d="M2870 2018 l0 -103 197 2 c172 2 200 4 221 20 58 44 65 96 18 150
l-24 28 -206 3 -206 3 0 -103z"/>
<path d="M324 1710 c-56 -22 -72 -108 -30 -157 l24 -28 211 -3 211 -3 0 100 0
101 -197 -1 c-109 0 -208 -4 -219 -9z"/>
<path d="M2870 1620 l0 -100 201 0 201 0 34 34 c24 25 34 43 34 66 0 23 -10
42 -34 66 l-34 34 -201 0 -201 0 0 -100z"/>
<path d="M340 1323 c-8 -3 -27 -17 -42 -31 -21 -20 -28 -35 -28 -65 0 -95 32
-107 280 -107 l190 0 0 105 0 105 -192 -1 c-106 0 -200 -3 -208 -6z"/>
<path d="M2870 1226 l0 -106 188 1 c103 1 198 4 212 8 30 8 70 64 70 98 0 13
-15 40 -34 61 l-34 37 -201 3 -201 3 0 -105z"/>
<path d="M1110 545 c0 -204 0 -206 24 -230 32 -32 69 -40 107 -25 58 25 63 42
65 261 l2 199 -99 0 -99 0 0 -205z"/>
<path d="M1502 544 l3 -206 28 -24 c55 -47 106 -40 152 21 18 24 20 45 23 221
l3 194 -106 0 -106 0 3 -206z"/>
<path d="M1900 549 l0 -202 36 -33 c48 -45 85 -45 130 0 l34 34 0 201 0 201
-100 0 -100 0 0 -201z"/>
<path d="M2295 558 c0 -214 5 -233 60 -262 40 -22 72 -16 112 18 l28 24 3 206
3 206 -103 0 -104 0 1 -192z"/>
</g>
</svg>
